<svg viewBox="0 0 1920 390.84" xmlns="http://www.w3.org/2000/svg" xmlns:xlink="http://www.w3.org/1999/xlink"><linearGradient id="a" gradientUnits="userSpaceOnUse" x1="99.14" x2="515.39" y1="292.85" y2="292.85"><stop offset="0" stop-color="#fc4c44"/><stop offset=".11" stop-color="#f74c46"/><stop offset=".24" stop-color="#e94b4e"/><stop offset=".39" stop-color="#d04a5a"/><stop offset=".54" stop-color="#af486a"/><stop offset=".69" stop-color="#844580"/><stop offset=".85" stop-color="#50429a"/><stop offset="1" stop-color="#193fb5"/></linearGradient><linearGradient id="b" gradientUnits="userSpaceOnUse" x1="139.12" x2="180.27" y1="247.28" y2="115.54"><stop offset="0" stop-color="#193fb5"/><stop offset=".08" stop-color="#3a41a4"/><stop offset=".2" stop-color="#6d448b"/><stop offset=".34" stop-color="#994675"/><stop offset=".47" stop-color="#bd4863"/><stop offset=".6" stop-color="#d84a56"/><stop offset=".73" stop-color="#ec4b4c"/><stop offset=".86" stop-color="#f84c46"/><stop offset="1" stop-color="#fc4c44"/></linearGradient><g fill="#fff"><path d="m1111.17 221.79c0 27.45-14.36 43.2-39.4 43.2s-39.4-15.75-39.4-43.2v-99.64h-46.17v104c0 60.14 44.2 81.57 85.57 81.57s85.37-21.43 85.37-81.57v-104h-46z"/><path d="m899.29 130.65-2.56-1.38a103.31 103.31 0 0 0 -49.55-12.06c-55.72 0-97.74 41-97.74 95.26s42 95.26 97.74 95.26c24.3 0 46-7.74 62.78-20.94a40.27 40.27 0 0 0 35.34 20.94v-275.16h-46zm-52.11 134.35c-29.33 0-50.62-22.09-50.62-52.52s21.29-52.48 50.62-52.48 50.82 22 50.82 52.47-21.38 52.53-50.82 52.53z"/><path d="m629 117.21c-54.7 0-91.46 38.51-91.46 95.83 0 56.64 37.75 94.69 93.93 94.69 30.8 0 56.39-8.86 76.09-26.34l-26.78-29.39c-13.28 10.69-30.51 17-46.43 17-26.52 0-44-14.07-49.05-39.62l-.42-2.08h131.24c.45-4.09.75-10 .75-15-.18-56.88-35.48-95.09-87.87-95.09zm-.38 39.32c22.16 0 37 13.55 41.81 38.17h-85c4.85-24.62 20.16-38.17 43.22-38.17z"/><path d="m1406.86 255.54-43.16-133.39h-49.77l-42.58 132.84-40.61-132.84h-49.17l61.21 180.83h53.79l41.76-128.44 42.16 128.44h54.17l61.21-180.83h-48.21z"/><path d="m1822.26 117.21a103.3 103.3 0 0 0 -49.54 12.06l-2.56 1.38v-98.08h-46v275.16a40.25 40.25 0 0 0 35.33-20.94c16.78 13.2 38.48 20.94 62.78 20.94 55.72 0 97.74-41 97.74-95.26s-42.01-95.26-97.75-95.26zm0 147.78c-29.43 0-50.8-22.09-50.8-52.52s21.37-52.52 50.8-52.52 50.62 22.09 50.62 52.52-21.29 52.53-50.62 52.53z"/><path d="m1603.62 117.21c-54.71 0-91.46 38.51-91.46 95.83 0 56.64 37.74 94.69 93.93 94.69 30.79 0 56.38-8.86 76.09-26.34l-26.81-29.39c-13.29 10.69-30.51 17-46.43 17-26.53 0-44-14.07-49.06-39.62l-.41-2.08h131.24c.45-4.06.75-9.95.75-15-.19-56.88-35.46-95.09-87.84-95.09zm-.38 39.32c22.15 0 37 13.55 41.8 38.17h-84.94c4.77-24.62 20.08-38.17 43.14-38.17z"/></g><path d="m358.25 195.42c0-.19 0-.38 0-.57h-300.13l-58.12 58.15v86c0 39.35 41.48 64.34 75.47 45.46l256.26-142.39a51.41 51.41 0 0 0 26.54-45.33c0-.44-.01-.88-.02-1.32z" fill="url(#a)"/><path d="m358.22 194.85a51.34 51.34 0 0 0 -26.17-43.52l-256.27-144.73c-34-19.2-75.78 5.77-75.78 45.28v84.86l58.12 58.11z" fill="url(#b)"/></svg>