<?xml version="1.0" encoding="UTF-8"?>
<svg width="38px" height="38px" viewBox="0 0 38 38" version="1.1" xmlns="http://www.w3.org/2000/svg" xmlns:xlink="http://www.w3.org/1999/xlink">
    <!-- Generator: Sketch 51.2 (57519) - http://www.bohemiancoding.com/sketch -->
    <title>wyloguj</title>
    <desc>Created with Sketch.</desc>
    <defs></defs>
    <g id="Page-1" stroke="none" stroke-width="1" fill="none" fill-rule="evenodd">
        <g id="user-profil" transform="translate(-1727.000000, -124.000000)" fill="#AFAFAF" fill-rule="nonzero">
            <g id="menu" transform="translate(61.000000, 114.000000)">
                <g id="Group-8" transform="translate(1666.000000, 1.000000)">
                    <path d="M8.23350486,25.4604854 C7.88389758,25.4604854 7.60015834,25.7442501 7.60015834,26.0938887 L7.60015834,29.8943089 C7.60015834,30.2439475 7.88389758,30.5277122 8.23350486,30.5277122 C8.58311215,30.5277122 8.86685139,30.2439475 8.86685139,29.8943089 L8.86685139,26.0938887 C8.86685139,25.7442501 8.58311215,25.4604854 8.23350486,25.4604854 Z M10.1335444,11.5256115 C10.1335444,10.7699613 9.75923665,10.2626052 9.20252505,10.2626052 C9.06382216,10.2626052 8.91498573,10.2923751 8.76044918,10.3506482 L2.76899102,12.7474465 C1.55866581,13.1958961 1.26669306,13.5765715 1.26669306,14.6926283 L1.26669306,41.30127 C1.26669306,42.4173267 1.55866581,42.7986355 2.7537907,43.2413845 L8.77248276,45.6502174 C8.91498573,45.7034233 9.06445551,45.7331933 9.2031584,45.7331933 C9.75987,45.7331933 10.1335444,45.2252038 10.1335444,44.4695536 L10.1335444,11.5256115 Z M11.4002375,11.5256115 L11.4002375,44.4695536 C11.4002375,45.9358824 10.4761849,47 9.2031584,47 C8.9105523,47 8.61161274,46.9429937 8.31393987,46.8302479 L2.2977812,44.4233151 C0.627013063,43.8038466 0,42.956353 0,41.30127 L0,14.6926283 C0,13.0375453 0.627013063,12.1900516 2.31361487,11.5655159 L8.30190629,9.16935097 C9.96380758,8.54354845 11.4002375,9.72421232 11.4002375,11.5256115 Z M13.2211088,12.7924182 L22.1671285,12.7924182 C23.2146836,12.7924182 24.0671681,13.6449791 24.0671681,14.6926283 L24.0671681,24.1936787 C24.0671681,24.5433173 24.350274,24.827082 24.7005146,24.827082 C25.0507552,24.827082 25.3338611,24.5433173 25.3338611,24.1936787 L25.3338611,14.6926283 C25.3338611,12.9463352 23.9132649,11.5256115 22.1671285,11.5256115 L13.2211088,11.5256115 C12.8715015,11.5256115 12.5877622,11.8093762 12.5877622,12.1590148 C12.5877622,12.5086535 12.8715015,12.7924182 13.2211088,12.7924182 Z M24.7005146,31.1611156 C24.350274,31.1611156 24.0671681,31.4448803 24.0671681,31.794519 L24.0671681,41.2955693 C24.0671681,42.3432185 23.2146836,43.1957794 22.1671285,43.1957794 L13.3002771,43.1957794 C12.9506698,43.1957794 12.6669306,43.4795441 12.6669306,43.8291828 C12.6669306,44.1788214 12.9506698,44.4625861 13.3002771,44.4625861 L22.1671285,44.4625861 C23.9132649,44.4625861 25.3338611,43.0418624 25.3338611,41.2955693 L25.3338611,31.794519 C25.3338611,31.4448803 25.0507552,31.1611156 24.7005146,31.1611156 Z M37.8145878,28.4425484 L31.4817559,34.7759486 C31.3582533,34.8994622 31.1961166,34.9615358 31.0339799,34.9615358 C30.8718432,34.9615358 30.7097065,34.8994622 30.5862039,34.7759486 C30.3385654,34.5282879 30.3385654,34.1279769 30.5862039,33.8803162 L35.8385466,28.6275022 L14.5669701,28.6275022 C14.2173629,28.6275022 13.9336236,28.3437375 13.9336236,27.9940988 C13.9336236,27.6444602 14.2173629,27.3606954 14.5669701,27.3606954 L35.8385466,27.3606954 L30.5862039,22.107248 C30.3385654,21.8595873 30.3385654,21.4592763 30.5862039,21.2116156 C30.8338424,20.9639549 31.2341174,20.9639549 31.4817559,21.2116156 L37.8145878,27.5456492 C37.873489,27.6045557 37.9197233,27.6742301 37.952024,27.7521387 C38.015992,27.9066891 38.015992,28.0815085 37.952024,28.2360589 C37.9197233,28.3139675 37.873489,28.3836419 37.8145878,28.4425484 Z" id="wyloguj"></path>
                </g>
            </g>
        </g>
    </g>
</svg>